<svg xmlns="http://www.w3.org/2000/svg" viewBox="0 0 600 200" width="600" height="200">
  <defs>
    <style>
      .white-stroke { fill: none; stroke: white; stroke-width: 6; stroke-linecap: round; stroke-linejoin: round; }
      .white-text { fill: white; font-family: sans-serif; font-weight: bold; }
      .light-text { fill: white; font-family: sans-serif; font-weight: normal; }
    </style>
  </defs>

  <polygon points="100,20 169,60 169,140 100,180 31,140 31,60" class="white-stroke" />
  
  <circle cx="100" cy="100" r="15" class="white-stroke" />
  
  <path d="M 75,100 A 25 25 0 0 1 125,100" class="white-stroke" />
  
  <line x1="31" y1="100" x2="85" y2="100" class="white-stroke" />
  <line x1="115" y1="100" x2="169" y2="100" class="white-stroke" />
  
  <line x1="100" y1="20" x2="100" y2="82" class="white-stroke" />
  <line x1="131" y1="83" x2="169" y2="70" class="white-stroke" />
  <line x1="131" y1="117" x2="169" y2="130" class="white-stroke" />
  <line x1="100" y1="115" x2="100" y2="170" class="white-stroke" />
  <line x1="69" y1="117" x2="31" y2="130" class="white-stroke" />
  <line x1="69" y1="83" x2="31" y2="70" class="white-stroke" />

  <line x1="85" y1="135" x2="115" y2="135" class="white-stroke" />
  <path d="M 85,135 L 75,150 M 115,135 L 125,150" class="white-stroke" />

  <text x="210" y="105" class="white-text" font-size="64" font-weight="bold">AITYCONS</text>
  <text x="212" y="145" class="light-text" font-size="20">TECH &amp; AUTOMATION LAB</text>
</svg>
